# 3ds Max Wavefront OBJ Exporter v0.99 - (c)2007 guruware
# File Created: 14.10.2023 13:16:00

mtllib tetrah.mtl

#
# object Pyramid001
#

v  0.0000 2.5000 0.0333
v  -0.0125 -2.5000 3.1261
v  2.6622 -2.5000 -1.7989
v  -2.6622 -2.5000 -1.7989
# 4 vertices

vn 0.8433 0.2812 0.4580
vn 0.7350 -0.5481 0.3992
vn 0.7009 -0.6033 0.3806
vn 0.0000 0.3441 -0.9389
vn -0.8446 0.2832 0.4544
vn 0.0000 -1.0000 -0.0000
# 6 vertex normals

vt 0.5000 1.0000 0.0000
vt 0.0000 0.0000 0.0000
vt 1.0000 0.4000 0.0000
vt 1.0000 0.0000 0.0000
vt 0.0000 1.0000 0.0000
# 5 texture coords

o Pyramid001
g Pyramid001
usemtl wire_214229166
s 14
f 1/1/1 2/2/2 3/3/3 
s 16
f 1/1/4 3/2/4 4/4/4 
s 32
f 1/1/5 4/2/5 2/4/5 
s 8
f 3/4/3 2/5/2 4/2/6 
# 4 faces

