# 3ds Max Wavefront OBJ Exporter v0.99 - (c)2007 guruware
# File Created: 01.12.2023 19:48:52

mtllib unwrap_pyramid.mtl

#
# object Pyramid001
#

v  0.0000 10.0000 -0.0000
v  -5.0000 0.0000 5.0000
v  5.0000 0.0000 5.0000
v  5.0000 0.0000 -5.0000
v  -5.0000 0.0000 -5.0000
v  0.0000 0.0000 -0.0000
# 6 vertices

vn 0.0000 0.4472 0.8944
vn 0.8944 0.4472 -0.0000
vn 0.0000 0.4472 -0.8944
vn -0.8944 0.4472 -0.0000
vn 0.0000 -1.0000 -0.0000
# 5 vertex normals

vt 0.1709 0.3828 0.0000
vt 0.0019 0.0042 0.0000
vt 0.3404 0.0044 0.0000
vt 0.4558 0.6019 0.0000
vt 0.2867 0.2233 0.0000
vt 0.6253 0.2235 0.0000
vt 0.1999 0.9808 0.0000
vt 0.0309 0.6022 0.0000
vt 0.3694 0.6024 0.0000
vt 0.8000 0.9879 0.0000
vt 0.6310 0.6093 0.0000
vt 0.9695 0.6095 0.0000
vt 0.6450 0.5512 0.0000
vt 0.8139 0.3815 0.0000
vt 0.9835 0.5504 0.0000
vt 0.9828 0.2118 0.0000
vt 0.6442 0.2126 0.0000
# 17 texture coords

o Pyramid001
g Pyramid001
usemtl wire_140088225
s 4
f 1/1/1 2/2/1 3/3/1 
s 2
f 1/4/2 3/5/2 4/6/2 
s 16
f 1/7/3 4/8/3 5/9/3 
s 32
f 1/10/4 5/11/4 2/12/4 
s 8
f 2/13/5 6/14/5 3/15/5 
f 3/15/5 6/14/5 4/16/5 
f 4/16/5 6/14/5 5/17/5 
f 5/17/5 6/14/5 2/13/5 
# 8 faces

